<?xml version="1.0" standalone="no"?>
<!DOCTYPE svg PUBLIC "-//W3C//DTD SVG 1.1//EN" "http://www.w3.org/Graphics/SVG/1.1/DTD/svg11.dtd" >
<svg xmlns="http://www.w3.org/2000/svg">
<metadata></metadata>
<defs>
<font id="dharma_gothic_eheavy" horiz-adv-x="768" >
<font-face units-per-em="2048" ascent="1638" descent="-410" />
<missing-glyph horiz-adv-x="280" />
<glyph unicode="&#xfb01;" horiz-adv-x="825" d="M4 870v260h53q0 175 58.5 239.5t220.5 64.5h115v-242h-45q-22 0 -31.5 -11t-9.5 -40v-11h86v-260h-80v-870h-314v870h-53zM481 0v1130h314v-1130h-314zM481 1192v242h314v-242h-314z" />
<glyph unicode="&#xfb02;" horiz-adv-x="825" d="M4 870v260h53q0 175 58.5 239.5t220.5 64.5h115v-242h-45q-22 0 -31.5 -11t-9.5 -40v-11h86v-260h-80v-870h-314v870h-53zM481 0v1434h314v-1434h-314z" />
<glyph horiz-adv-x="0" />
<glyph horiz-adv-x="682" />
<glyph unicode=" "  horiz-adv-x="280" />
<glyph unicode="&#x09;" horiz-adv-x="280" />
<glyph unicode="&#xa0;" horiz-adv-x="280" />
<glyph unicode="!" horiz-adv-x="405" d="M29 0v371h348v-371h-348zM29 995v439h348v-439l-51 -559h-246z" />
<glyph unicode="&#x22;" horiz-adv-x="741" d="M14 1260v174h330v-174l-41 -340h-248zM397 1260v174h330v-174l-41 -340h-248z" />
<glyph unicode="#" d="M0 281l18 290h50l24 340h-51l20 291h52l16 232h268l-16 -232h68l16 232h268l-16 -232h51l-20 -291h-52l-24 -340h53l-20 -290h-54l-18 -281h-268l18 281h-68l-18 -281h-268l18 281h-47zM336 571h67l25 340h-68z" />
<glyph unicode="$" d="M37 362v175h305v-136q0 -29 6 -40t25 -11h6q19 0 25 11t6 40v11q0 40 -7 61.5t-38 53t-101 79.5q-138 97 -182.5 175t-44.5 204v86q0 168 45.5 237t169.5 81v96h262v-94q127 -10 173 -80t46 -240v-147h-305v108q0 29 -6 40t-25 11h-6q-19 0 -25 -11t-6 -40v-10 q0 -40 7 -61.5t38 -53.5t101 -80q138 -97 182.5 -174.5t44.5 -203.5v-87q0 -169 -46.5 -239t-172.5 -80v-94h-262v94q-125 12 -170 81t-45 238z" />
<glyph unicode="%" horiz-adv-x="1306" d="M25 737v469q0 137 45.5 187.5t171.5 50.5h96q123 0 170 -51t47 -187v-469q0 -136 -46.5 -186.5t-170.5 -50.5h-96q-126 0 -171.5 50t-45.5 187zM256 772q0 -29 6 -40t25 -11h6q19 0 25 11t6 40v402q0 29 -6 40t-25 11h-6q-19 0 -25 -11t-6 -40v-402zM334 0l563 1434h76 l-563 -1434h-76zM752 227v469q0 137 45.5 187.5t171.5 50.5h96q123 0 170 -51t47 -187v-469q0 -136 -46.5 -186.5t-170.5 -50.5h-96q-126 0 -171.5 50t-45.5 187zM983 262q0 -29 6 -40t25 -11h6q19 0 25 11t6 40v402q0 29 -6 40t-25 11h-6q-19 0 -25 -11t-6 -40v-402z" />
<glyph unicode="&#x26;" horiz-adv-x="835" d="M20 236v167q0 157 34.5 231.5t127.5 98.5q-93 26 -127.5 100t-34.5 232v20q0 204 63.5 276.5t248.5 72.5h198v-330h-129q-20 0 -26 -11.5t-6 -43.5v-97q0 -32 6 -43.5t26 -11.5h41v133h314v-133h80v-326h-80v-313q0 -164 41 -258h-316q-25 44 -32 158q-14 -85 -59 -126.5 t-134 -41.5h-59q-100 0 -138.5 56t-38.5 190zM369 375q0 -32 6 -44t26 -12h9q20 0 26 12t6 44v196h-41q-20 0 -26 -11.5t-6 -43.5v-141z" />
<glyph unicode="'" horiz-adv-x="382" d="M27 1260v174h329v-174l-41 -340h-247z" />
<glyph unicode="(" horiz-adv-x="466" d="M29 166v979q0 181 56.5 245t219.5 64h141v-264h-79q-17 0 -23 -11t-6 -38v-971q0 -27 6 -38t23 -11h79v-264h-141q-163 0 -219.5 64t-56.5 245z" />
<glyph unicode=")" horiz-adv-x="466" d="M20 121h80q17 0 23 11t6 38v971q0 27 -6 38t-23 11h-80v264h142q163 0 219.5 -64t56.5 -245v-979q0 -181 -56.5 -245t-219.5 -64h-142v264z" />
<glyph unicode="*" horiz-adv-x="788" d="M0 979l248 76l-248 75l133 228l184 -176l-57 252h266l-59 -252l186 176l135 -228l-249 -75l249 -76l-135 -229l-184 174l57 -250h-266l57 250l-184 -174z" />
<glyph unicode="+" d="M27 580v276h223v266h266v-266h225v-276h-225v-269h-266v269h-223z" />
<glyph unicode="," horiz-adv-x="382" d="M16 0v412h349v-412l-308 -229l-14 18l195 211h-222z" />
<glyph unicode="-" horiz-adv-x="520" d="M27 432v236h467v-236h-467z" />
<glyph unicode="." horiz-adv-x="382" d="M16 0v412h349v-412h-349z" />
<glyph unicode="/" d="M-29 -41l516 1516h310l-516 -1516h-310z" />
<glyph unicode="0" d="M27 311v811q0 97 12 156.5t45.5 98t87 53t141.5 14.5h142q168 0 227 -67t59 -255v-811q0 -188 -59 -254.5t-227 -66.5h-142q-88 0 -141.5 14.5t-87 53t-45.5 97.5t-12 156zM350 348q0 -29 6 -40t25 -11h6q19 0 25 11t6 40v737q0 30 -6 41t-25 11h-6q-19 0 -25 -11t-6 -41 v-737z" />
<glyph unicode="1" horiz-adv-x="403" d="M43 0v1272q58 0 115 54.5t57 107.5h152v-1434h-324z" />
<glyph unicode="2" horiz-adv-x="759" d="M14 0v240q0 83 12 144.5t44 119t71 105t111 120.5q66 68 97.5 108t51 96t19.5 130v22q0 30 -6 41t-25 11h-6q-19 0 -25 -11t-6 -41v-161h-305v198q0 189 58.5 255.5t228.5 66.5h123q169 0 227.5 -66.5t58.5 -255.5v-78q0 -84 -11.5 -145t-43.5 -118.5t-71.5 -105 t-110.5 -120.5q-80 -81 -115.5 -133t-46.5 -119h391v-303h-721z" />
<glyph unicode="3" horiz-adv-x="737" d="M20 311v228h306v-191q0 -30 5.5 -40.5t24.5 -10.5h6q19 0 25 11t6 40v201q0 29 -6 40t-25 11h-210v307h210q19 0 25 11t6 40v127q0 30 -6 41t-25 11h-6q-19 0 -24.5 -11t-5.5 -41v-116h-306v153q0 189 58.5 255.5t228.5 66.5h123q168 0 227.5 -67t59.5 -255v-67 q0 -136 -29.5 -206t-103.5 -97q74 -26 103.5 -94.5t29.5 -204.5v-142q0 -188 -59.5 -254.5t-227.5 -66.5h-123q-171 0 -229 66t-58 255z" />
<glyph unicode="4" horiz-adv-x="745" d="M4 207v242l322 985h344v-957h75v-270h-75v-207h-324v207h-342zM279 477h67v78q0 143 23 375q-52 -291 -72 -375z" />
<glyph unicode="5" horiz-adv-x="741" d="M27 311v228h305v-191q0 -30 5.5 -40.5t24.5 -10.5h7q19 0 24.5 10.5t5.5 40.5v371q0 30 -5.5 40.5t-24.5 10.5h-7q-19 0 -24.5 -10.5t-5.5 -40.5v-109h-305v824h659v-304h-354v-188q31 129 174 129h57q93 0 126.5 -51.5t33.5 -177.5v-531q0 -188 -59.5 -254.5 t-227.5 -66.5h-123q-88 0 -141.5 14.5t-87 53t-45.5 97.5t-12 156z" />
<glyph unicode="6" horiz-adv-x="761" d="M27 311v811q0 188 59 255t227 67h123q170 0 228.5 -66.5t58.5 -255.5v-133h-305v96q0 30 -6 41t-25 11h-6q-19 0 -25 -11t-6 -41v-290q16 66 57.5 99.5t116.5 33.5h60q92 0 124.5 -51.5t32.5 -178.5v-387q0 -97 -12.5 -156t-46 -97.5t-87 -53t-140.5 -14.5h-142 q-88 0 -141.5 14.5t-87 53t-45.5 97.5t-12 156zM350 348q0 -29 6 -40t25 -11h6q19 0 25 11t6 40v225q0 30 -6 41t-25 11h-6q-19 0 -25 -11t-6 -41v-225z" />
<glyph unicode="7" horiz-adv-x="720" d="M0 1130v304h721v-275l-301 -1159h-359l361 1130h-422z" />
<glyph unicode="8" horiz-adv-x="755" d="M20 311v142q0 137 29 206t103 95q-74 27 -103 97t-29 206v65q0 188 59 255t228 67h142q168 0 227 -67t59 -255v-65q0 -136 -29.5 -206t-103.5 -97q74 -26 103.5 -95.5t29.5 -205.5v-142q0 -188 -59 -254.5t-227 -66.5h-142q-170 0 -228.5 66.5t-58.5 254.5zM344 348 q0 -29 6 -40t25 -11h6q19 0 25 11t6 40v203q0 29 -6 40t-25 11h-6q-19 0 -25 -11t-6 -40v-203zM344 961q0 -30 6 -41t25 -11h6q19 0 25 11t6 41v124q0 30 -6 41t-25 11h-6q-19 0 -25 -11t-6 -41v-124z" />
<glyph unicode="9" horiz-adv-x="761" d="M20 756v366q0 188 59 255t228 67h142q88 0 141.5 -14.5t87 -53t45.5 -98t12 -156.5v-811q0 -188 -59 -254.5t-227 -66.5h-123q-171 0 -229 66t-58 255v154h305v-117q0 -29 6 -40t25 -11h6q19 0 25 11t6 40v309q-18 -66 -58.5 -98.5t-115.5 -32.5h-60q-92 0 -125 52 t-33 178zM344 881q0 -30 6 -41t25 -11h6q19 0 25 11t6 41v204q0 30 -6 41t-25 11h-6q-19 0 -25 -11t-6 -41v-204z" />
<glyph unicode=":" horiz-adv-x="382" d="M16 0v412h349v-412h-349zM16 719v411h349v-411h-349z" />
<glyph unicode=";" horiz-adv-x="382" d="M16 0v412h349v-412l-308 -229l-14 18l195 211h-222zM16 719v411h349v-411h-349z" />
<glyph unicode="&#x3c;" d="M27 717l360 385h354l-366 -385l366 -385h-354z" />
<glyph unicode="=" d="M27 371v278h714v-278h-714zM27 786v279h714v-279h-714z" />
<glyph unicode="&#x3e;" d="M27 332l366 385l-366 385h354l360 -385l-360 -385h-354z" />
<glyph unicode="?" horiz-adv-x="729" d="M16 924v198q0 189 58.5 255.5t228.5 66.5h123q169 0 228 -67t59 -257v-100q0 -79 -23.5 -141.5t-57.5 -102t-68 -75.5t-57.5 -80.5t-23.5 -98.5v-76h-280v76q0 82 19 145t46.5 103.5t55 79t46.5 92t19 121.5v22q0 30 -6 41t-25 11h-6q-19 0 -24.5 -11t-5.5 -41v-161h-306 zM172 0v371h342v-371h-342z" />
<glyph unicode="@" horiz-adv-x="1204" d="M25 530v164q0 672 596 672h10q142 0 248.5 -42.5t171.5 -119.5t97 -178.5t32 -226.5v-137q0 -127 -19 -220t-49 -147.5t-76 -87t-91 -43t-103 -10.5h-11q-117 0 -155 75q-38 -75 -158 -75h-43q-79 0 -113.5 41.5t-23.5 148.5l53 510q10 100 44 138t102 38h43 q100 0 120 -69l31 61h156l-72 -684q-5 -57 43 -57q33 0 58.5 18t48 62t35 130t12.5 209v99q0 201 -88 300t-293 99h-10q-106 0 -178.5 -24t-124 -81.5t-75.5 -155t-24 -243.5v-182q0 -125 23.5 -216.5t63.5 -148t103 -90t132 -45.5t161 -12q170 0 252 27v-166 q-102 -21 -256 -21q-673 0 -673 690zM532 334q-2 -22 3.5 -30.5t27.5 -8.5h10q44 0 50 43l53 514q2 20 -5.5 28.5t-29.5 8.5h-14q-21 0 -30 -9t-11 -28z" />
<glyph unicode="A" horiz-adv-x="819" d="M0 0l168 1434h481l168 -1434h-350l-12 168h-129l-13 -168h-313zM348 465h84q-33 440 -43 721q-15 -339 -41 -721z" />
<glyph unicode="B" horiz-adv-x="821" d="M29 0v1434h460q183 0 246.5 -72.5t63.5 -276.5v-16q0 -144 -28.5 -216t-102.5 -101q73 -27 102 -100t29 -216v-88q0 -204 -63.5 -276t-246.5 -72h-460zM377 330h41q20 0 26.5 11.5t6.5 43.5v147q0 32 -6.5 44t-26.5 12h-41v-258zM377 918h41q20 0 26.5 11.5t6.5 43.5v76 q0 32 -6.5 43.5t-26.5 11.5h-41v-186z" />
<glyph unicode="C" horiz-adv-x="804" d="M29 338v758q0 84 9 140.5t29 98.5t56.5 65t87.5 33.5t127 10.5h131q76 0 127 -10.5t87.5 -33.5t56.5 -65t29 -98.5t9 -140.5v-228h-327v191q0 32 -6.5 43.5t-26.5 11.5h-8q-20 0 -26.5 -11.5t-6.5 -43.5v-684q0 -32 6.5 -44t26.5 -12h8q20 0 26.5 12t6.5 44v252h327v-289 q0 -84 -9 -140.5t-29 -98.5t-56.5 -65t-87.5 -33.5t-127 -10.5h-131q-76 0 -127 10.5t-87.5 33.5t-56.5 65t-29 98.5t-9 140.5z" />
<glyph unicode="D" horiz-adv-x="835" d="M37 0v1434h461q76 0 127 -11t87.5 -34t56.5 -65t29 -98.5t9 -140.5v-737q0 -84 -9 -140.5t-29 -98.5t-56.5 -65t-87.5 -33.5t-127 -10.5h-461zM385 330h41q20 0 26.5 11.5t6.5 43.5v664q0 32 -6.5 43.5t-26.5 11.5h-41v-774z" />
<glyph unicode="E" horiz-adv-x="645" d="M37 0v1434h588v-330h-240v-197h182v-329h-182v-248h240v-330h-588z" />
<glyph unicode="F" horiz-adv-x="612" d="M37 0v1434h573v-330h-225v-217h168v-330h-168v-557h-348z" />
<glyph unicode="G" horiz-adv-x="806" d="M29 338v758q0 84 9 140.5t29 98.5t56.5 65t87.5 33.5t127 10.5h131q76 0 127 -10.5t87.5 -33.5t56.5 -65t29 -98.5t9 -140.5v-166h-327v129q0 32 -6.5 43.5t-26.5 11.5h-8q-20 0 -26.5 -11.5t-6.5 -43.5v-684q0 -32 6.5 -44t26.5 -12h8q20 0 26.5 12t6.5 44v153h-37v330 h364v-520q0 -84 -9 -140.5t-29 -98.5t-56.5 -65t-87.5 -33.5t-127 -10.5h-131q-76 0 -127 10.5t-87.5 33.5t-56.5 65t-29 98.5t-9 140.5z" />
<glyph unicode="H" horiz-adv-x="843" d="M37 0v1434h348v-527h74v527h348v-1434h-348v578h-74v-578h-348z" />
<glyph unicode="I" horiz-adv-x="421" d="M37 0v1434h348v-1434h-348z" />
<glyph unicode="J" horiz-adv-x="792" d="M10 338v289h328v-252q0 -32 6.5 -44t26.5 -12h8q20 0 26.5 12t6.5 44v1059h348v-1096q0 -84 -9 -140.5t-29 -98.5t-56.5 -65t-87.5 -33.5t-127 -10.5h-132q-76 0 -127 10.5t-87.5 33.5t-56.5 65t-29 98.5t-9 140.5z" />
<glyph unicode="K" horiz-adv-x="874" d="M37 0v1434h348v-607q4 21 25 113l116 494h340l-182 -672l190 -762h-366l-94 465q-18 87 -29 149v-614h-348z" />
<glyph unicode="L" horiz-adv-x="581" d="M37 0v1434h348v-1104h197v-330h-545z" />
<glyph unicode="M" horiz-adv-x="1167" d="M35 0v1434h477l43 -420q8 -82 20 -262q10 148 21 262l43 420h494v-1434h-342v502q0 130 4 356q-8 -58 -24.5 -184.5t-22.5 -171.5l-66 -502h-238l-65 502q-5 34 -20.5 155t-24.5 185q4 -218 4 -340v-502h-303z" />
<glyph unicode="N" horiz-adv-x="860" d="M35 0v1434h409l43 -324q40 -286 43 -313q-4 222 -4 313v324h299v-1434h-379l-71 397q-29 167 -45 316q4 -226 4 -316v-397h-299z" />
<glyph unicode="O" horiz-adv-x="827" d="M29 338v758q0 84 9 140.5t29 98.5t56.5 65t87.5 33.5t127 10.5h151q183 0 246.5 -72t63.5 -276v-758q0 -204 -63.5 -276t-246.5 -72h-151q-76 0 -127 10.5t-87.5 33.5t-56.5 65t-29 98.5t-9 140.5zM377 375q0 -32 6.5 -44t26.5 -12h8q20 0 26.5 12t6.5 44v684 q0 32 -6.5 43.5t-26.5 11.5h-8q-20 0 -26.5 -11.5t-6.5 -43.5v-684z" />
<glyph unicode="P" horiz-adv-x="825" d="M37 0v1434h461q76 0 127 -11t87.5 -34t56.5 -65t29 -98.5t9 -140.5v-276q0 -203 -63 -275.5t-246 -72.5h-113v-461h-348zM385 791h41q20 0 26.5 11.5t6.5 43.5v203q0 32 -6.5 43.5t-26.5 11.5h-41v-313z" />
<glyph unicode="Q" horiz-adv-x="827" d="M29 338v758q0 84 9 140.5t29 98.5t56.5 65t87.5 33.5t127 10.5h151q183 0 246.5 -72t63.5 -276v-758q0 -168 -40 -243t-147 -95v-29q0 -61 41 -61h62v-170h-148q-77 0 -122 9t-76.5 37t-43.5 75.5t-14 128.5q-167 4 -224.5 77.5t-57.5 270.5zM377 375q0 -32 6.5 -44 t26.5 -12h8q20 0 26.5 12t6.5 44v684q0 32 -6.5 43.5t-26.5 11.5h-8q-20 0 -26.5 -11.5t-6.5 -43.5v-684z" />
<glyph unicode="R" horiz-adv-x="825" d="M29 0v1434h460q183 0 246.5 -72.5t63.5 -276.5v-57q0 -146 -29.5 -218t-105.5 -99q76 -30 105.5 -104.5t29.5 -219.5v-135q0 -163 41 -252h-359q-30 52 -30 223v238q0 86 -58 86h-16v-547h-348zM377 877h41q20 0 26.5 11.5t6.5 43.5v117q0 32 -6.5 43.5t-26.5 11.5h-41 v-227z" />
<glyph unicode="S" horiz-adv-x="792" d="M23 338v186h325v-149q0 -32 6.5 -44t26.5 -12h10q18 0 24.5 12t6.5 44v24q0 26 -3.5 46.5t-15.5 41.5t-21.5 34t-36.5 37t-43.5 37t-59.5 46q-57 45 -92 80.5t-67 84.5t-46 111.5t-14 143.5v35q0 84 9 140.5t29 98.5t56.5 65t87.5 33.5t127 10.5h129q76 0 127 -10.5 t87.5 -33.5t56.5 -65t29 -98.5t9 -140.5v-146h-328v109q0 32 -6 43.5t-26 11.5h-9q-19 0 -25.5 -10.5t-6.5 -36.5v-4q0 -37 8.5 -64.5t32.5 -55.5t49.5 -50t76.5 -62q9 -7 13 -10q46 -37 76 -64.5t60.5 -65.5t47 -77.5t27 -93t10.5 -119.5v-63q0 -84 -9 -140.5t-29 -98.5 t-56.5 -65t-87.5 -33.5t-127 -10.5h-129q-76 0 -127 10.5t-87.5 33.5t-56.5 65t-29 98.5t-9 140.5z" />
<glyph unicode="T" horiz-adv-x="647" d="M0 1106v328h647v-328h-149v-1106h-348v1106h-150z" />
<glyph unicode="U" horiz-adv-x="813" d="M33 338v1096h348v-1059q0 -32 6.5 -44t26.5 -12h8q20 0 26.5 12t6.5 44v1059h327v-1096q0 -84 -9 -140.5t-29 -98.5t-56.5 -65t-87.5 -33.5t-127 -10.5h-131q-76 0 -127 10.5t-87.5 33.5t-56.5 65t-29 98.5t-9 140.5z" />
<glyph unicode="V" horiz-adv-x="798" d="M2 1434h350l33 -353q20 -216 33 -602q19 433 35 602l32 353h314l-168 -1434h-461z" />
<glyph unicode="W" horiz-adv-x="1253" d="M2 1434h350l41 -478q22 -274 25 -397q8 197 24 397l39 478h328l39 -478q16 -200 24 -397q5 188 25 397l43 478h313l-166 -1434h-407l-21 283q-19 262 -22 360q-2 -70 -23 -360l-20 -283h-426z" />
<glyph unicode="X" horiz-adv-x="813" d="M0 0l143 752l-141 682h350l29 -183q33 -200 41 -309q10 125 37 309l28 183h312l-135 -682l149 -752h-352l-35 225q-33 216 -41 324q-8 -115 -37 -324l-33 -225h-315z" />
<glyph unicode="Y" horiz-adv-x="800" d="M0 1434h350l23 -160q30 -207 47 -447q17 240 47 447l22 160h314l-230 -1043v-391h-348v391z" />
<glyph unicode="Z" horiz-adv-x="679" d="M14 0v301l281 803h-264v330h633v-301l-281 -803h281v-330h-650z" />
<glyph unicode="[" horiz-adv-x="475" d="M37 -143v1597h418v-264h-109v-1069h109v-264h-418z" />
<glyph unicode="\" d="M-29 1475h310l516 -1516h-310z" />
<glyph unicode="]" horiz-adv-x="475" d="M20 121h109v1069h-109v264h418v-1597h-418v264z" />
<glyph unicode="^" d="M27 791l241 643h230l243 -643h-258l-100 284l-98 -284h-258z" />
<glyph unicode="_" horiz-adv-x="1024" d="M0 -20h1024v-191h-1024v191z" />
<glyph unicode="`" horiz-adv-x="382" d="M-6 1434h260l106 -250h-190z" />
<glyph unicode="a" horiz-adv-x="737" d="M18 209v184q0 111 39.5 176t149.5 97q123 36 155.5 61t32.5 90q0 35 -28 35h-7q-17 0 -22.5 -11t-5.5 -38v-66h-295v94q0 182 56 246t220 64h117q164 0 221.5 -64t57.5 -246v-641q0 -114 20 -190h-299q-21 30 -27 137q-13 -74 -53.5 -110.5t-120.5 -36.5h-49 q-92 0 -127 49.5t-35 169.5zM332 328q0 -27 5.5 -38t22.5 -11h7q17 0 22.5 11t5.5 38v141q-40 -12 -51.5 -28.5t-11.5 -59.5v-53z" />
<glyph unicode="b" horiz-adv-x="747" d="M31 0v1434h313v-402q36 109 166 109h49q92 0 127 -49.5t35 -169.5v-713q0 -120 -35 -169.5t-127 -49.5h-49q-75 0 -115.5 32.5t-56.5 98.5l-25 -121h-282zM344 328q0 -27 6 -38t23 -11h6q17 0 23 11t6 38v475q0 27 -6 38t-23 11h-6q-17 0 -23 -11t-6 -38v-475z" />
<glyph unicode="c" horiz-adv-x="720" d="M25 299v532q0 182 56.5 246t221.5 64h117q164 0 220 -64t56 -246v-176h-295v148q0 27 -5.5 38t-22.5 11h-6q-17 0 -23 -11t-6 -38v-475q0 -27 6 -38t23 -11h6q17 0 22.5 11t5.5 38v168h295v-197q0 -181 -56.5 -245t-219.5 -64h-117q-165 0 -221.5 64t-56.5 245z" />
<glyph unicode="d" horiz-adv-x="747" d="M27 209v713q0 120 34.5 169.5t126.5 49.5h50q129 0 165 -109v402h314v-1244q0 -114 20 -190h-299q-20 28 -26 137q-13 -74 -53.5 -110.5t-120.5 -36.5h-50q-92 0 -126.5 49.5t-34.5 169.5zM340 328q0 -27 6 -38t23 -11h6q17 0 22.5 11t5.5 38v475q0 27 -5.5 38t-22.5 11 h-6q-17 0 -23 -11t-6 -38v-475z" />
<glyph unicode="e" horiz-adv-x="720" d="M25 299v532q0 182 56.5 246t221.5 64h117q164 0 220 -64t56 -246v-372h-358v-131q0 -27 6 -38t23 -11h6q17 0 22.5 11t5.5 38v69h295v-98q0 -181 -56.5 -245t-219.5 -64h-117q-165 0 -221.5 64t-56.5 245zM338 713h63v90q0 27 -5.5 38t-22.5 11h-6q-17 0 -23 -11t-6 -38 v-90z" />
<glyph unicode="f" horiz-adv-x="450" d="M4 870v260h53q0 175 58.5 239.5t220.5 64.5h115v-242h-45q-22 0 -31.5 -11t-9.5 -40v-11h86v-260h-80v-870h-314v870h-53z" />
<glyph unicode="g" horiz-adv-x="757" d="M16 635v196q0 182 57 246t222 64h84q93 0 148 -18.5t85 -63.5q15 82 101 82h45v-281h-51q-17 0 -23 -11t-6 -38v-176q0 -181 -57.5 -245t-221.5 -64h-116q-35 0 -35 -33v-2q0 -29 39 -29h178q77 0 127.5 -9.5t89.5 -35t56.5 -72.5t17.5 -120v-29q0 -149 -62.5 -207.5 t-228.5 -58.5h-252q-190 0 -190 161v43q0 83 59 113q-43 48 -43 143v19q0 106 70 151q-51 32 -72 96t-21 179zM240 -47v-6q0 -18 10.5 -23.5t38.5 -5.5h172q27 0 38 5.5t11 23.5v6q0 17 -11.5 23t-37.5 6h-172q-27 0 -38 -6t-11 -23zM315 627q0 -27 6 -38t23 -11h6 q17 0 23 11t6 38v213q0 27 -6 38t-23 11h-6q-17 0 -23 -11t-6 -38v-213z" />
<glyph unicode="h" horiz-adv-x="749" d="M31 0v1434h313v-402q36 109 166 109h49q92 0 127 -49.5t35 -169.5v-922h-313v803q0 27 -6 38t-23 11h-6q-17 0 -23 -11t-6 -38v-803h-313z" />
<glyph unicode="i" horiz-adv-x="374" d="M31 0v1130h313v-1130h-313zM31 1192v242h313v-242h-313z" />
<glyph unicode="j" horiz-adv-x="374" d="M-20 -29h10q24 0 32.5 10.5t8.5 43.5v1105h313v-1081q0 -181 -56.5 -245t-221.5 -64h-86v231zM31 1192v242h313v-242h-313z" />
<glyph unicode="k" horiz-adv-x="759" d="M31 0v1434h313v-775q7 35 18.5 82t14.5 60l76 329h299l-150 -534l158 -596h-326l-67 334q-19 108 -23 135v-469h-313z" />
<glyph unicode="l" horiz-adv-x="374" d="M31 0v1434h313v-1434h-313z" />
<glyph unicode="m" horiz-adv-x="1126" d="M31 0v1130h299v-169q9 91 50 135.5t130 44.5h49q73 0 109 -31t47 -102q16 66 56.5 99.5t115.5 33.5h49q92 0 127 -49.5t35 -169.5v-922h-314v803q0 27 -5.5 38t-22.5 11h-6q-17 0 -23 -11t-6 -38v-803h-313v803q0 27 -6 38t-23 11h-6q-17 0 -23 -11t-6 -38v-803h-313z " />
<glyph unicode="n" horiz-adv-x="749" d="M31 0v1130h299v-169q9 91 50 135.5t130 44.5h49q92 0 127 -49.5t35 -169.5v-922h-313v803q0 27 -6 38t-23 11h-6q-17 0 -23 -11t-6 -38v-803h-313z" />
<glyph unicode="o" horiz-adv-x="739" d="M25 299v532q0 182 56.5 246t221.5 64h133q164 0 221.5 -64t57.5 -246v-532q0 -181 -57.5 -245t-221.5 -64h-133q-165 0 -221.5 64t-56.5 245zM338 328q0 -27 6 -38t23 -11h6q17 0 22.5 11t5.5 38v475q0 27 -5.5 38t-22.5 11h-6q-17 0 -23 -11t-6 -38v-475z" />
<glyph unicode="p" horiz-adv-x="747" d="M31 -260v1390h299v-169q9 91 50 135.5t130 44.5h49q92 0 127 -49.5t35 -169.5v-713q0 -120 -35 -169.5t-127 -49.5h-49q-131 0 -166 108v-358h-313zM344 328q0 -27 6 -38t23 -11h6q17 0 23 11t6 38v475q0 27 -6 38t-23 11h-6q-17 0 -23 -11t-6 -38v-475z" />
<glyph unicode="q" horiz-adv-x="747" d="M27 209v713q0 120 34.5 169.5t126.5 49.5h50q76 0 116 -33t54 -98l26 120h283v-1390h-314v358q-35 -108 -165 -108h-50q-92 0 -126.5 49.5t-34.5 169.5zM340 328q0 -27 6 -38t23 -11h6q17 0 22.5 11t5.5 38v475q0 27 -5.5 38t-22.5 11h-6q-17 0 -23 -11t-6 -38v-475z" />
<glyph unicode="r" horiz-adv-x="495" d="M31 0v1130h299v-186q19 197 151 197h15v-340h-17q-77 0 -106 -37t-29 -131v-633h-313z" />
<glyph unicode="s" horiz-adv-x="712" d="M20 299v115h295v-86q0 -27 6 -38t23 -11h6q17 0 23 11t6 38v30q0 37 -31.5 58t-132.5 65q-105 46 -150 113.5t-45 183.5v53q0 182 57 246t222 64h115q164 0 221 -64t57 -246v-94h-295v66q0 27 -5.5 38t-22.5 11h-7q-17 0 -22.5 -11t-5.5 -38v-10q0 -37 31.5 -58 t132.5 -65q105 -46 149.5 -113.5t44.5 -183.5v-74q0 -181 -57 -245t-221 -64h-115q-165 0 -222 64t-57 245z" />
<glyph unicode="t" horiz-adv-x="450" d="M4 870v260h53v246h314v-246h80v-260h-80v-612q0 -157 41 -258h-326q-29 50 -29 229v641h-53z" />
<glyph unicode="u" horiz-adv-x="749" d="M29 209v921h313v-802q0 -27 6 -38t23 -11h6q17 0 23 11t6 38v802h313v-940q0 -114 20 -190h-299q-20 28 -26 137q-13 -74 -53.5 -110.5t-120.5 -36.5h-50q-92 0 -126.5 49.5t-34.5 169.5z" />
<glyph unicode="v" horiz-adv-x="716" d="M0 1130h319l19 -198q24 -254 37 -570q17 344 39 570l18 198h285l-154 -1130h-409z" />
<glyph unicode="w" horiz-adv-x="1132" d="M0 1130h319l15 -147q12 -123 35 -598q11 215 43 598l12 147h319l15 -147q28 -303 43 -598q2 34 7 165t11 234t15 199l14 147h285l-138 -1130h-383l-12 133q-23 276 -25 330q-9 -171 -22 -330l-12 -133h-404z" />
<glyph unicode="x" horiz-adv-x="712" d="M0 0l111 594l-105 536h322l6 -43q37 -262 41 -366q10 159 39 366l6 43h287l-105 -536l111 -594h-324l-10 76q-3 26 -11.5 89.5t-14 105.5t-11 99t-6.5 101q-8 -157 -37 -395l-10 -76h-289z" />
<glyph unicode="y" horiz-adv-x="716" d="M0 1130h319l21 -198q21 -224 35 -570q21 399 37 570l20 198h285l-164 -1167q-14 -106 -79.5 -164.5t-186.5 -58.5h-264v231h108q30 0 27 29z" />
<glyph unicode="z" horiz-adv-x="634" d="M14 0v229l271 641h-242v260h580v-231l-271 -639h271v-260h-609z" />
<glyph unicode="{" horiz-adv-x="520" d="M0 522v262h53q17 0 23 11.5t6 38.5v311q0 181 56.5 245t221.5 64h140v-264h-80q-17 0 -23 -11t-6 -38v-191q0 -143 -33 -209.5t-120 -87.5q87 -20 120 -86.5t33 -208.5v-188q0 -27 6 -38t23 -11h80v-264h-140q-165 0 -221.5 64t-56.5 245v307q0 27 -6 38t-23 11h-53z" />
<glyph unicode="|" d="M238 -260v1694h292v-1694h-292z" />
<glyph unicode="}" horiz-adv-x="520" d="M20 121h80q17 0 23 11t6 38v188q0 141 33.5 208t120.5 87q-88 21 -121 88t-33 209v191q0 27 -6 38t-23 11h-80v264h140q165 0 221.5 -64t56.5 -245v-311q0 -27 6 -38.5t23 -11.5h53v-262h-53q-17 0 -23 -11t-6 -38v-307q0 -181 -56.5 -245t-221.5 -64h-140v264z" />
<glyph unicode="~" d="M27 524v275q83 108 194 108q60 0 177.5 -44t174.5 -44q98 0 168 92v-276q-84 -109 -194 -109q-61 0 -179.5 44t-174.5 44q-99 0 -166 -90z" />
<glyph unicode="&#xa1;" horiz-adv-x="405" d="M29 178l51 559h246l51 -559v-438h-348v438zM29 803v371h348v-371h-348z" />
<glyph unicode="&#xa2;" d="M47 451v532q0 162 44 228.5t165 76.5v146h246v-144q126 -9 171.5 -75.5t45.5 -231.5v-176h-295v147q0 27 -6 38.5t-23 11.5h-6q-17 0 -23 -11.5t-6 -38.5v-475q0 -27 6 -38t23 -11h6q17 0 23 11t6 38v168h295v-196q0 -165 -45.5 -232t-171.5 -76v-143h-246v143 q-121 12 -165 79t-44 229z" />
<glyph unicode="&#xa3;" d="M18 0v270q87 40 119.5 68t42.5 88h-141v213h115q-6 11 -27.5 50.5t-32 63.5t-25.5 66t-21.5 91t-6.5 106v106q0 188 59.5 255t227.5 67h123q88 0 141.5 -14.5t87 -53t45.5 -98t12 -156.5v-321h-305v284q0 30 -6 41t-25 11h-6q-19 0 -24.5 -11t-5.5 -41v-73 q0 -93 13.5 -157t45 -134.5t35.5 -81.5h243v-213h-231q-19 -79 -80 -123h332v-303h-705z" />
<glyph unicode="&#xa4;" d="M6 444l119 103q-49 73 -49 168q0 98 49 168l-119 104l109 109l102 -123q76 51 168 51t168 -51l102 123l109 -109l-121 -104q51 -73 51 -168t-49 -168l119 -103l-109 -108l-100 119q-76 -49 -170 -49q-97 0 -170 49l-100 -119zM219 715q0 -69 48.5 -118.5t117.5 -49.5 t117.5 49.5t48.5 118.5q0 71 -48.5 120.5t-117.5 49.5t-117.5 -49.5t-48.5 -120.5z" />
<glyph unicode="&#xa5;" d="M10 1434h326l20 -160q31 -252 43 -447q14 195 45 447l21 160h291l-187 -912h176v-80h-192l-10 -51v-63h202v-80h-202v-248h-324v248h-199v80h199v63l-10 51h-189v80h173z" />
<glyph unicode="&#xa6;" d="M238 -260v799h292v-799h-292zM238 633v801h292v-801h-292z" />
<glyph unicode="&#xa7;" horiz-adv-x="743" d="M20 115v63h308v-67q0 -30 5.5 -41t24.5 -11h7q19 0 24.5 11t5.5 41v4q0 42 -26 65t-111 45q-132 35 -185 97t-53 178v162q0 142 84 194q-52 42 -68 97t-16 141v26q0 190 59.5 257t233.5 67h121q171 0 230 -67t59 -257v-63h-307v67q0 30 -6 41t-25 11h-6q-19 0 -25 -11 t-6 -41v-4q0 -42 26 -65t111 -45q132 -35 185 -97t53 -178v-162q0 -142 -84 -194q51 -44 67.5 -99t16.5 -139v-26q0 -190 -59.5 -257t-233.5 -67h-121q-171 0 -230 67t-59 257zM336 588q0 -54 22 -74h21q17 0 23 7.5t6 27.5v98q0 28 -4.5 44t-20.5 30h-18q-17 0 -23 -7.5 t-6 -27.5v-98z" />
<glyph unicode="&#xa8;" horiz-adv-x="382" d="M-102 1184v250h262v-250h-262zM219 1184v250h262v-250h-262z" />
<glyph unicode="&#xa9;" horiz-adv-x="1255" d="M49 590v254q0 105 10.5 185t35 149.5t66 117t102.5 82t145 50.5t194 16h51q110 0 194 -16t145 -50.5t102.5 -82t66 -117t35 -149.5t10.5 -185v-254q0 -105 -10.5 -185t-35 -149.5t-66 -117t-102.5 -82t-145 -50.5t-194 -16h-51q-110 0 -194 16t-145 50.5t-102.5 82 t-66 117t-35 149.5t-10.5 185zM231 590q0 -247 79.5 -340.5t291.5 -93.5h51q213 0 292 93.5t79 340.5v254q0 247 -79 340.5t-292 93.5h-51q-212 0 -291.5 -93.5t-79.5 -340.5v-254zM391 487v459q0 126 38.5 169.5t152.5 43.5h82q115 0 154.5 -43.5t39.5 -169.5v-137h-190 v104q0 32 -6.5 44t-26.5 12h-8q-20 0 -26.5 -12t-6.5 -44v-393q0 -32 6.5 -43.5t26.5 -11.5h8q20 0 26.5 11.5t6.5 43.5v142h190v-175q0 -126 -39.5 -169.5t-154.5 -43.5h-82q-114 0 -152.5 43.5t-38.5 169.5z" />
<glyph unicode="&#xaa;" horiz-adv-x="573" d="M20 805v108q0 77 31.5 123.5t116.5 71.5q92 26 117.5 41.5t25.5 52.5q0 31 -28 31h-7q-17 0 -22.5 -11t-5.5 -38v-25h-213v53q0 136 42.5 184t166.5 48h88q122 0 164.5 -48t42.5 -184v-428q0 -96 20 -143h-213q-18 18 -22 121q-8 -66 -39.5 -98.5t-96.5 -32.5h-38 q-68 0 -99 42t-31 132zM25 373v211h524v-211h-524zM248 889q0 -27 5.5 -38t22.5 -11h7q17 0 22.5 11t5.5 38v61l-18 -4q-45 -9 -45 -53v-4z" />
<glyph unicode="&#xab;" horiz-adv-x="841" d="M0 565l203 410h289l-187 -410l187 -409h-289zM369 565l186 410h287l-172 -410l172 -409h-287z" />
<glyph unicode="&#xac;" d="M27 580v276h714v-545h-264v269h-450z" />
<glyph unicode="&#xad;" horiz-adv-x="520" d="M27 432v236h467v-236h-467z" />
<glyph unicode="&#xae;" horiz-adv-x="1255" d="M49 590v254q0 105 10.5 185t35 149.5t66 117t102.5 82t145 50.5t194 16h51q110 0 194 -16t145 -50.5t102.5 -82t66 -117t35 -149.5t10.5 -185v-254q0 -105 -10.5 -185t-35 -149.5t-66 -117t-102.5 -82t-145 -50.5t-194 -16h-51q-110 0 -194 16t-145 50.5t-102.5 82 t-66 117t-35 149.5t-10.5 185zM231 590q0 -247 79.5 -340.5t291.5 -93.5h51q213 0 292 93.5t79 340.5v254q0 247 -79 340.5t-292 93.5h-51q-212 0 -291.5 -93.5t-79.5 -340.5v-254zM397 289v856h289q113 0 152 -43.5t39 -169.5v-29q0 -94 -20.5 -141t-72.5 -64 q52 -15 72.5 -60.5t20.5 -139.5v-66q0 -87 22 -143h-211q-14 25 -14 129v131q0 55 -45 55h-29v-315h-203zM600 795h41q19 0 26 12t7 43v49q0 31 -7 43t-26 12h-41v-159z" />
<glyph unicode="&#xaf;" horiz-adv-x="382" d="M-55 1190v182h495v-182h-495z" />
<glyph unicode="&#xb0;" horiz-adv-x="575" d="M12 1128q0 131 73.5 207t203.5 76t202 -75.5t72 -207.5t-72.5 -208t-201.5 -76q-130 0 -203.5 76.5t-73.5 207.5zM207 1128q0 -92 82 -92q80 0 80 92q0 93 -80 93q-40 0 -61 -24.5t-21 -68.5z" />
<glyph unicode="&#xb1;" d="M27 168v278h714v-278h-714zM27 743v277h223v246h266v-246h225v-277h-225v-247h-266v247h-223z" />
<glyph unicode="&#xb2;" horiz-adv-x="579" d="M20 510v221q0 101 44.5 159.5t134.5 106.5q83 43 105 70.5t22 91.5v15q0 29 -6 40t-25 11h-6q-19 0 -25 -11t-6 -40v-117h-217v149q0 137 45.5 187.5t171.5 50.5h82q124 0 170.5 -50.5t46.5 -187.5v-71q0 -41 -5.5 -75t-18.5 -59.5t-25 -44t-34 -35.5t-35 -25.5t-40 -24 t-37 -21.5q-7 -4 -22 -13l-20 -12t-16 -10t-15 -10.5t-11.5 -9.5t-10 -10.5t-7 -11t-6 -13t-3 -14.5t-1.5 -17h301v-219h-531z" />
<glyph unicode="&#xb3;" horiz-adv-x="579" d="M31 737v60h219v-25q0 -29 6 -40t25 -11h6q19 0 24.5 10.5t5.5 40.5v35q0 30 -5.5 40.5t-24.5 10.5h-148v219h148q19 0 24.5 10.5t5.5 40.5v46q0 30 -5.5 40.5t-24.5 10.5h-8q-18 0 -23.5 -11t-5.5 -40v-33h-219v65q0 137 45.5 187.5t171.5 50.5h84q123 0 170 -51t47 -187 v-12q0 -104 -26 -156t-89 -71q62 -19 88.5 -71.5t26.5 -154.5v-4q0 -136 -46.5 -186.5t-170.5 -50.5h-84q-126 0 -171.5 50t-45.5 187z" />
<glyph unicode="&#xb4;" horiz-adv-x="382" d="M23 1184l106 250h260l-176 -250h-190z" />
<glyph unicode="&#xb5;" horiz-adv-x="749" d="M29 -260v1390h313v-802q0 -27 6 -38t23 -11h6q17 0 23 11t6 38v802h313v-940q0 -114 20 -190h-299q-20 28 -26 137q-16 -89 -72 -125v-272h-313z" />
<glyph unicode="&#xb6;" horiz-adv-x="989" d="M18 762v323q0 204 63.5 276.5t246.5 72.5h624v-1633h-233v1393h-68v-1393h-233v613h-90q-183 0 -246.5 72t-63.5 276z" />
<glyph unicode="&#xb7;" horiz-adv-x="382" d="M16 512v412h349v-412h-349z" />
<glyph unicode="&#xb8;" horiz-adv-x="382" d="M-27 -154h160q0 -25 7 -36t34 -11q29 0 36 8t7 31q0 24 -22.5 37t-79.5 14v111h104v-70q107 0 150 -17.5t43 -74.5q0 -22 -3 -36t-16 -29t-37 -23.5t-67.5 -14t-106.5 -5.5q-73 0 -115 5.5t-63 21t-26 34t-5 55.5z" />
<glyph unicode="&#xb9;" horiz-adv-x="313" d="M43 510v807q41 0 83 40t42 77h106v-924h-231z" />
<glyph unicode="&#xba;" horiz-adv-x="567" d="M25 373v211h518v-211h-518zM25 864v348q0 136 42 184t164 48h107q121 0 163 -48t42 -184v-348q0 -136 -42 -184.5t-163 -48.5h-107q-122 0 -164 48.5t-42 184.5zM252 893q0 -27 6 -38t23 -11h6q17 0 22.5 11t5.5 38v291q0 27 -5.5 38t-22.5 11h-6q-17 0 -23 -11t-6 -38 v-291z" />
<glyph unicode="&#xbb;" horiz-adv-x="841" d="M0 156l172 409l-172 410h287l186 -410l-186 -409h-287zM350 156l187 409l-187 410h289l203 -410l-203 -409h-289z" />
<glyph unicode="&#xbc;" horiz-adv-x="999" d="M43 510v807q41 0 83 40t42 77h106v-924h-231zM109 0l563 1434h76l-564 -1434h-75zM434 158v178l248 588h246v-570h55v-196h-55v-158h-232v158h-262zM641 354h55v58q0 49 13 182q-28 -113 -50 -182z" />
<glyph unicode="&#xbd;" horiz-adv-x="1081" d="M43 510v807q41 0 83 40t42 77h106v-924h-231zM109 0l563 1434h76l-564 -1434h-75zM522 0v221q0 101 44.5 159.5t133.5 106.5q83 43 105 70.5t22 91.5v15q0 30 -5.5 40.5t-24.5 10.5h-6q-19 0 -25 -11t-6 -40v-117h-217v149q0 137 45.5 187.5t171.5 50.5h82 q124 0 170.5 -50.5t46.5 -187.5v-71q0 -41 -5.5 -75t-18.5 -59.5t-25 -44t-34 -35.5t-35 -25.5t-40 -24t-37 -21.5q-7 -4 -22 -13l-20 -12t-16 -10t-15 -10.5t-11.5 -9.5t-10 -10.5t-7 -11t-6 -13t-3 -14.5t-1.5 -17h301v-219h-531z" />
<glyph unicode="&#xbe;" horiz-adv-x="1224" d="M31 737v60h219v-25q0 -29 6 -40t25 -11h6q19 0 24.5 10.5t5.5 40.5v35q0 30 -5.5 40.5t-24.5 10.5h-148v219h148q19 0 24.5 10.5t5.5 40.5v46q0 30 -5.5 40.5t-24.5 10.5h-8q-18 0 -23.5 -11t-5.5 -40v-33h-219v65q0 137 45.5 187.5t171.5 50.5h84q123 0 170 -51t47 -187 v-12q0 -104 -26 -156t-89 -71q62 -19 88.5 -71.5t26.5 -154.5v-4q0 -136 -46.5 -186.5t-170.5 -50.5h-84q-126 0 -171.5 50t-45.5 187zM334 0l563 1434h76l-563 -1434h-76zM659 158v178l248 588h246v-570h55v-196h-55v-158h-231v158h-263zM866 354h56v58q0 59 12 182 q-31 -126 -49 -182z" />
<glyph unicode="&#xbf;" horiz-adv-x="729" d="M16 53v101q0 67 17 122.5t42.5 90t55.5 69.5t55.5 62.5t42.5 67t17 85.5v76h280v-76q0 -82 -19 -145t-46.5 -103.5t-55 -78.5t-46.5 -91.5t-19 -121.5v-23q0 -29 6 -40t25 -11h6q19 0 25 11t6 40v162h305v-199q0 -189 -58 -255t-229 -66h-123q-170 0 -228.5 66.5 t-58.5 256.5zM215 803v371h342v-371h-342z" />
<glyph unicode="&#xc0;" horiz-adv-x="819" d="M0 0l168 1434h481l168 -1434h-350l-12 168h-129l-13 -168h-313zM170 1724h260l107 -249h-191zM348 465h84q-33 440 -43 721q-15 -339 -41 -721z" />
<glyph unicode="&#xc1;" horiz-adv-x="819" d="M0 0l168 1434h481l168 -1434h-350l-12 168h-129l-13 -168h-313zM281 1475l106 249h260l-176 -249h-190zM348 465h84q-33 440 -43 721q-15 -339 -41 -721z" />
<glyph unicode="&#xc2;" horiz-adv-x="819" d="M0 0l168 1434h481l168 -1434h-350l-12 168h-129l-13 -168h-313zM156 1475l145 249h217l146 -249h-191l-63 92l-64 -92h-190zM348 465h84q-33 440 -43 721q-15 -339 -41 -721z" />
<glyph unicode="&#xc3;" horiz-adv-x="819" d="M0 0l168 1434h481l168 -1434h-350l-12 168h-129l-13 -168h-313zM154 1485q0 128 39 178.5t129 50.5q50 0 99.5 -25.5t70.5 -25.5q38 0 38 51h134q0 -127 -38 -178t-126 -51q-50 0 -99.5 24.5t-70.5 24.5q-39 0 -39 -49h-137zM348 465h84q-33 440 -43 721 q-15 -339 -41 -721z" />
<glyph unicode="&#xc4;" horiz-adv-x="819" d="M0 0l168 1434h481l168 -1434h-350l-12 168h-129l-13 -168h-313zM115 1475v249h262v-249h-262zM348 465h84q-33 440 -43 721q-15 -339 -41 -721zM436 1475v249h262v-249h-262z" />
<glyph unicode="&#xc5;" horiz-adv-x="819" d="M0 0l168 1434h481l168 -1434h-350l-12 168h-129l-13 -168h-313zM244 1628q0 72 48 116t118 44q69 0 117 -44t48 -116t-48 -116t-117 -44q-70 0 -118 44t-48 116zM348 465h84q-33 440 -43 721q-15 -339 -41 -721zM362 1628q0 -22 13 -35.5t35 -13.5t34.5 13.5t12.5 35.5 t-12.5 35.5t-34.5 13.5t-35 -13.5t-13 -35.5z" />
<glyph unicode="&#xc6;" horiz-adv-x="1095" d="M2 0l334 1434h739v-330h-239v-197h182v-329h-182v-248h239v-330h-588v168h-137l-35 -168h-313zM410 465h77v539q-74 -520 -77 -539z" />
<glyph unicode="&#xc7;" horiz-adv-x="804" d="M29 338v758q0 84 9 140.5t29 98.5t56.5 65t87.5 33.5t127 10.5h131q76 0 127 -10.5t87.5 -33.5t56.5 -65t29 -98.5t9 -140.5v-228h-327v191q0 32 -6.5 43.5t-26.5 11.5h-8q-20 0 -26.5 -11.5t-6.5 -43.5v-684q0 -32 6.5 -44t26.5 -12h8q20 0 26.5 12t6.5 44v252h327v-289 q0 -84 -9 -140.5t-29 -98.5t-56.5 -65t-87.5 -33.5t-127 -10.5h-37v-60q107 0 150 -17.5t43 -74.5q0 -22 -3 -36t-16 -29t-37 -23.5t-67.5 -14t-106.5 -5.5q-73 0 -115 5.5t-63 21t-26 34t-5 55.5h160q0 -25 7 -36t34 -11q29 0 36 8t7 31q0 24 -22.5 37t-79.5 14v101 q-177 1 -238 74t-61 274z" />
<glyph unicode="&#xc8;" horiz-adv-x="645" d="M37 0v1434h588v-330h-240v-197h182v-329h-182v-248h240v-330h-588zM94 1724h260l107 -249h-191z" />
<glyph unicode="&#xc9;" horiz-adv-x="645" d="M37 0v1434h588v-330h-240v-197h182v-329h-182v-248h240v-330h-588zM205 1475l106 249h260l-176 -249h-190z" />
<glyph unicode="&#xca;" horiz-adv-x="645" d="M37 0v1434h588v-330h-240v-197h182v-329h-182v-248h240v-330h-588zM78 1475l145 249h217l146 -249h-191l-63 92l-64 -92h-190z" />
<glyph unicode="&#xcb;" horiz-adv-x="645" d="M37 0v1434h588v-330h-240v-197h182v-329h-182v-248h240v-330h-588zM37 1475v249h262v-249h-262zM358 1475v249h263v-249h-263z" />
<glyph unicode="&#xcc;" horiz-adv-x="421" d="M-29 1724h260l107 -249h-191zM37 0v1434h348v-1434h-348z" />
<glyph unicode="&#xcd;" horiz-adv-x="421" d="M37 0v1434h348v-1434h-348zM82 1475l106 249h261l-177 -249h-190z" />
<glyph unicode="&#xce;" horiz-adv-x="421" d="M-43 1475l145 249h217l146 -249h-191l-63 92l-64 -92h-190zM37 0v1434h348v-1434h-348z" />
<glyph unicode="&#xcf;" horiz-adv-x="421" d="M-84 1475v249h262v-249h-262zM37 0v1434h348v-1434h-348zM238 1475v249h262v-249h-262z" />
<glyph unicode="&#xd0;" horiz-adv-x="835" d="M0 625v256h37v553h461q76 0 127 -11t87.5 -34t56.5 -65t29 -98.5t9 -140.5v-737q0 -84 -9 -140.5t-29 -98.5t-56.5 -65t-87.5 -33.5t-127 -10.5h-461v625h-37zM385 330h41q20 0 26.5 11.5t6.5 43.5v664q0 32 -6.5 43.5t-26.5 11.5h-41v-223h37v-256h-37v-295z" />
<glyph unicode="&#xd1;" horiz-adv-x="860" d="M35 0v1434h409l43 -324q40 -286 43 -313q-4 222 -4 313v324h299v-1434h-379l-71 397q-29 167 -45 316q4 -226 4 -316v-397h-299zM178 1485q0 128 39 178.5t129 50.5q50 0 99.5 -25.5t70.5 -25.5q39 0 39 51h133q0 -127 -38 -178t-126 -51q-50 0 -99.5 24.5t-70.5 24.5 q-39 0 -39 -49h-137z" />
<glyph unicode="&#xd2;" horiz-adv-x="827" d="M29 338v758q0 84 9 140.5t29 98.5t56.5 65t87.5 33.5t127 10.5h151q183 0 246.5 -72t63.5 -276v-758q0 -204 -63.5 -276t-246.5 -72h-151q-76 0 -127 10.5t-87.5 33.5t-56.5 65t-29 98.5t-9 140.5zM174 1724h260l107 -249h-191zM377 375q0 -32 6.5 -44t26.5 -12h8 q20 0 26.5 12t6.5 44v684q0 32 -6.5 43.5t-26.5 11.5h-8q-20 0 -26.5 -11.5t-6.5 -43.5v-684z" />
<glyph unicode="&#xd3;" horiz-adv-x="827" d="M29 338v758q0 84 9 140.5t29 98.5t56.5 65t87.5 33.5t127 10.5h151q183 0 246.5 -72t63.5 -276v-758q0 -204 -63.5 -276t-246.5 -72h-151q-76 0 -127 10.5t-87.5 33.5t-56.5 65t-29 98.5t-9 140.5zM285 1475l106 249h260l-176 -249h-190zM377 375q0 -32 6.5 -44t26.5 -12 h8q20 0 26.5 12t6.5 44v684q0 32 -6.5 43.5t-26.5 11.5h-8q-20 0 -26.5 -11.5t-6.5 -43.5v-684z" />
<glyph unicode="&#xd4;" horiz-adv-x="827" d="M29 338v758q0 84 9 140.5t29 98.5t56.5 65t87.5 33.5t127 10.5h151q183 0 246.5 -72t63.5 -276v-758q0 -204 -63.5 -276t-246.5 -72h-151q-76 0 -127 10.5t-87.5 33.5t-56.5 65t-29 98.5t-9 140.5zM160 1475l145 249h217l146 -249h-191l-63 92l-64 -92h-190zM377 375 q0 -32 6.5 -44t26.5 -12h8q20 0 26.5 12t6.5 44v684q0 32 -6.5 43.5t-26.5 11.5h-8q-20 0 -26.5 -11.5t-6.5 -43.5v-684z" />
<glyph unicode="&#xd5;" horiz-adv-x="827" d="M29 338v758q0 84 9 140.5t29 98.5t56.5 65t87.5 33.5t127 10.5h151q183 0 246.5 -72t63.5 -276v-758q0 -204 -63.5 -276t-246.5 -72h-151q-76 0 -127 10.5t-87.5 33.5t-56.5 65t-29 98.5t-9 140.5zM158 1485q0 128 39 178.5t129 50.5q50 0 99.5 -25.5t70.5 -25.5 q39 0 39 51h133q0 -127 -38 -178t-126 -51q-50 0 -99.5 24.5t-70.5 24.5q-39 0 -39 -49h-137zM377 375q0 -32 6.5 -44t26.5 -12h8q20 0 26.5 12t6.5 44v684q0 32 -6.5 43.5t-26.5 11.5h-8q-20 0 -26.5 -11.5t-6.5 -43.5v-684z" />
<glyph unicode="&#xd6;" horiz-adv-x="827" d="M29 338v758q0 84 9 140.5t29 98.5t56.5 65t87.5 33.5t127 10.5h151q183 0 246.5 -72t63.5 -276v-758q0 -204 -63.5 -276t-246.5 -72h-151q-76 0 -127 10.5t-87.5 33.5t-56.5 65t-29 98.5t-9 140.5zM119 1475v249h262v-249h-262zM377 375q0 -32 6.5 -44t26.5 -12h8 q20 0 26.5 12t6.5 44v684q0 32 -6.5 43.5t-26.5 11.5h-8q-20 0 -26.5 -11.5t-6.5 -43.5v-684zM440 1475v249h262v-249h-262z" />
<glyph unicode="&#xd7;" d="M20 516l191 201l-191 201l173 180l190 -201l192 203l173 -180l-195 -203l195 -203l-173 -180l-192 203l-190 -201z" />
<glyph unicode="&#xd8;" horiz-adv-x="827" d="M29 -61l45 145q-45 75 -45 254v758q0 84 9 140.5t29 98.5t56.5 65t87.5 33.5t127 10.5h162l16 51h281l-45 -145q47 -71 47 -254v-758q0 -204 -63.5 -276t-246.5 -72h-163l-17 -51h-280zM377 375q0 -32 6.5 -44t26.5 -12h8q20 0 26.5 12t6.5 44v684q0 32 -6.5 43.5 t-26.5 11.5h-8q-20 0 -26.5 -11.5t-6.5 -43.5v-684z" />
<glyph unicode="&#xd9;" horiz-adv-x="813" d="M33 338v1096h348v-1059q0 -32 6.5 -44t26.5 -12h8q20 0 26.5 12t6.5 44v1059h327v-1096q0 -84 -9 -140.5t-29 -98.5t-56.5 -65t-87.5 -33.5t-127 -10.5h-131q-76 0 -127 10.5t-87.5 33.5t-56.5 65t-29 98.5t-9 140.5zM168 1724h260l107 -249h-191z" />
<glyph unicode="&#xda;" horiz-adv-x="813" d="M33 338v1096h348v-1059q0 -32 6.5 -44t26.5 -12h8q20 0 26.5 12t6.5 44v1059h327v-1096q0 -84 -9 -140.5t-29 -98.5t-56.5 -65t-87.5 -33.5t-127 -10.5h-131q-76 0 -127 10.5t-87.5 33.5t-56.5 65t-29 98.5t-9 140.5zM279 1475l106 249h260l-176 -249h-190z" />
<glyph unicode="&#xdb;" horiz-adv-x="813" d="M33 338v1096h348v-1059q0 -32 6.5 -44t26.5 -12h8q20 0 26.5 12t6.5 44v1059h327v-1096q0 -84 -9 -140.5t-29 -98.5t-56.5 -65t-87.5 -33.5t-127 -10.5h-131q-76 0 -127 10.5t-87.5 33.5t-56.5 65t-29 98.5t-9 140.5zM152 1475l145 249h217l145 -249h-190l-63 92l-64 -92 h-190z" />
<glyph unicode="&#xdc;" horiz-adv-x="813" d="M33 338v1096h348v-1059q0 -32 6.5 -44t26.5 -12h8q20 0 26.5 12t6.5 44v1059h327v-1096q0 -84 -9 -140.5t-29 -98.5t-56.5 -65t-87.5 -33.5t-127 -10.5h-131q-76 0 -127 10.5t-87.5 33.5t-56.5 65t-29 98.5t-9 140.5zM111 1475v249h262v-249h-262zM432 1475v249h262v-249 h-262z" />
<glyph unicode="&#xdd;" horiz-adv-x="800" d="M0 1434h350l23 -160q30 -207 47 -447q17 240 47 447l22 160h314l-230 -1043v-391h-348v391zM281 1475l106 249h260l-176 -249h-190z" />
<glyph unicode="&#xde;" horiz-adv-x="823" d="M37 0v1434h348v-123h113q183 0 246 -71.5t63 -274.5v-232q0 -203 -63 -275.5t-246 -72.5h-113v-385h-348zM385 715h41q20 0 26.5 11.5t6.5 43.5v156q0 32 -6.5 43.5t-26.5 11.5h-41v-266z" />
<glyph unicode="&#xdf;" horiz-adv-x="741" d="M31 0v1135q0 181 57 245t221 64h133q165 0 222 -64t57 -245v-19q0 -134 -29 -201.5t-102 -91.5q73 -24 102 -90.5t29 -200.5v-223q0 -181 -57 -245t-222 -64h-75v260h12q16 0 22.5 12t6.5 45v310q0 27 -6 38t-23 11h-12v295h12q17 0 23 11t6 38v131q0 28 -6 39.5 t-23 11.5h-6q-17 0 -23 -11t-6 -38v-1153h-313z" />
<glyph unicode="&#xe0;" horiz-adv-x="737" d="M18 209v184q0 111 39.5 176t149.5 97q123 36 155.5 61t32.5 90q0 35 -28 35h-7q-17 0 -22.5 -11t-5.5 -38v-66h-295v94q0 182 56 246t220 64h117q164 0 221.5 -64t57.5 -246v-641q0 -114 20 -190h-299q-21 30 -27 137q-13 -74 -53.5 -110.5t-120.5 -36.5h-49 q-92 0 -127 49.5t-35 169.5zM129 1434h260l107 -250h-191zM332 328q0 -27 5.5 -38t22.5 -11h7q17 0 22.5 11t5.5 38v141q-40 -12 -51.5 -28.5t-11.5 -59.5v-53z" />
<glyph unicode="&#xe1;" horiz-adv-x="737" d="M18 209v184q0 111 39.5 176t149.5 97q123 36 155.5 61t32.5 90q0 35 -28 35h-7q-17 0 -22.5 -11t-5.5 -38v-66h-295v94q0 182 56 246t220 64h117q164 0 221.5 -64t57.5 -246v-641q0 -114 20 -190h-299q-21 30 -27 137q-13 -74 -53.5 -110.5t-120.5 -36.5h-49 q-92 0 -127 49.5t-35 169.5zM240 1184l106 250h260l-176 -250h-190zM332 328q0 -27 5.5 -38t22.5 -11h7q17 0 22.5 11t5.5 38v141q-40 -12 -51.5 -28.5t-11.5 -59.5v-53z" />
<glyph unicode="&#xe2;" horiz-adv-x="737" d="M18 209v184q0 111 39.5 176t149.5 97q123 36 155.5 61t32.5 90q0 35 -28 35h-7q-17 0 -22.5 -11t-5.5 -38v-66h-295v94q0 182 56 246t220 64h117q164 0 221.5 -64t57.5 -246v-641q0 -114 20 -190h-299q-21 30 -27 137q-13 -74 -53.5 -110.5t-120.5 -36.5h-49 q-92 0 -127 49.5t-35 169.5zM115 1184l145 250h217l146 -250h-191l-63 92l-64 -92h-190zM332 328q0 -27 5.5 -38t22.5 -11h7q17 0 22.5 11t5.5 38v141q-40 -12 -51.5 -28.5t-11.5 -59.5v-53z" />
<glyph unicode="&#xe3;" horiz-adv-x="737" d="M18 209v184q0 111 39.5 176t149.5 97q123 36 155.5 61t32.5 90q0 35 -28 35h-7q-17 0 -22.5 -11t-5.5 -38v-66h-295v94q0 182 56 246t220 64h117q164 0 221.5 -64t57.5 -246v-641q0 -114 20 -190h-299q-21 30 -27 137q-13 -74 -53.5 -110.5t-120.5 -36.5h-49 q-92 0 -127 49.5t-35 169.5zM113 1194q0 128 39 178.5t129 50.5q50 0 99.5 -25.5t70.5 -25.5q38 0 38 51h134q0 -127 -38 -178t-126 -51q-50 0 -99.5 24.5t-70.5 24.5q-39 0 -39 -49h-137zM332 328q0 -27 5.5 -38t22.5 -11h7q17 0 22.5 11t5.5 38v141q-40 -12 -51.5 -28.5 t-11.5 -59.5v-53z" />
<glyph unicode="&#xe4;" horiz-adv-x="737" d="M18 209v184q0 111 39.5 176t149.5 97q123 36 155.5 61t32.5 90q0 35 -28 35h-7q-17 0 -22.5 -11t-5.5 -38v-66h-295v94q0 182 56 246t220 64h117q164 0 221.5 -64t57.5 -246v-641q0 -114 20 -190h-299q-21 30 -27 137q-13 -74 -53.5 -110.5t-120.5 -36.5h-49 q-92 0 -127 49.5t-35 169.5zM74 1184v250h262v-250h-262zM332 328q0 -27 5.5 -38t22.5 -11h7q17 0 22.5 11t5.5 38v141q-40 -12 -51.5 -28.5t-11.5 -59.5v-53zM395 1184v250h262v-250h-262z" />
<glyph unicode="&#xe5;" horiz-adv-x="737" d="M18 209v184q0 111 39.5 176t149.5 97q123 36 155.5 61t32.5 90q0 35 -28 35h-7q-17 0 -22.5 -11t-5.5 -38v-66h-295v94q0 182 56 246t220 64h117q164 0 221.5 -64t57.5 -246v-641q0 -114 20 -190h-299q-21 30 -27 137q-13 -74 -53.5 -110.5t-120.5 -36.5h-49 q-92 0 -127 49.5t-35 169.5zM203 1337q0 72 48 116t118 44t118 -44t48 -116q0 -71 -48 -115t-118 -44t-118 44t-48 115zM322 1337q0 -22 12.5 -35.5t34.5 -13.5t34.5 13.5t12.5 35.5t-12.5 35.5t-34.5 13.5t-34.5 -13.5t-12.5 -35.5zM332 328q0 -27 5.5 -38t22.5 -11h7 q17 0 22.5 11t5.5 38v141q-40 -12 -51.5 -28.5t-11.5 -59.5v-53z" />
<glyph unicode="&#xe6;" horiz-adv-x="1091" d="M18 209v184q0 111 39.5 176t149.5 97q123 36 155.5 61t32.5 90q0 35 -28 35h-7q-17 0 -22.5 -11t-5.5 -38v-66h-295v94q0 182 56 246t220 64h17q98 0 148.5 -21t72.5 -71q23 51 74 71.5t149 20.5h14q165 0 222 -64t57 -246v-372h-358v-131q0 -27 5.5 -38t22.5 -11h6 q17 0 23 11t6 38v69h295v-98q0 -181 -57 -245t-222 -64h-114q-128 0 -187.5 35.5t-78.5 126.5q-13 -81 -54 -121.5t-125 -40.5h-49q-92 0 -127 49.5t-35 169.5zM332 328q0 -27 5.5 -38t22.5 -11h7q25 0 28 34v156q-40 -12 -51.5 -28.5t-11.5 -59.5v-53zM709 713h63v90 q0 27 -6 38t-23 11h-6q-17 0 -22.5 -11t-5.5 -38v-90z" />
<glyph unicode="&#xe7;" horiz-adv-x="720" d="M25 299v532q0 182 56.5 246t221.5 64h117q164 0 220 -64t56 -246v-176h-295v148q0 27 -5.5 38t-22.5 11h-6q-17 0 -23 -11t-6 -38v-475q0 -27 6 -38t23 -11h6q17 0 22.5 11t5.5 38v168h295v-197q0 -181 -56.5 -245t-219.5 -64h-37v-60q107 0 149.5 -17.5t42.5 -74.5 q0 -22 -3 -35.5t-15.5 -29t-36.5 -24t-67.5 -14t-106.5 -5.5q-73 0 -115 5.5t-63 21t-26 34t-5 55.5h160q0 -25 7 -36t34 -11q29 0 36 8t7 31q0 24 -22.5 37t-79.5 14v101q-149 4 -201.5 69t-52.5 240z" />
<glyph unicode="&#xe8;" horiz-adv-x="720" d="M25 299v532q0 182 56.5 246t221.5 64h117q164 0 220 -64t56 -246v-372h-358v-131q0 -27 6 -38t23 -11h6q17 0 22.5 11t5.5 38v69h295v-98q0 -181 -56.5 -245t-219.5 -64h-117q-165 0 -221.5 64t-56.5 245zM129 1434h260l107 -250h-191zM338 713h63v90q0 27 -5.5 38 t-22.5 11h-6q-17 0 -23 -11t-6 -38v-90z" />
<glyph unicode="&#xe9;" horiz-adv-x="720" d="M25 299v532q0 182 56.5 246t221.5 64h117q164 0 220 -64t56 -246v-372h-358v-131q0 -27 6 -38t23 -11h6q17 0 22.5 11t5.5 38v69h295v-98q0 -181 -56.5 -245t-219.5 -64h-117q-165 0 -221.5 64t-56.5 245zM240 1184l106 250h260l-176 -250h-190zM338 713h63v90 q0 27 -5.5 38t-22.5 11h-6q-17 0 -23 -11t-6 -38v-90z" />
<glyph unicode="&#xea;" horiz-adv-x="720" d="M25 299v532q0 182 56.5 246t221.5 64h117q164 0 220 -64t56 -246v-372h-358v-131q0 -27 6 -38t23 -11h6q17 0 22.5 11t5.5 38v69h295v-98q0 -181 -56.5 -245t-219.5 -64h-117q-165 0 -221.5 64t-56.5 245zM113 1184l145 250h217l146 -250h-191l-63 92l-64 -92h-190z M338 713h63v90q0 27 -5.5 38t-22.5 11h-6q-17 0 -23 -11t-6 -38v-90z" />
<glyph unicode="&#xeb;" horiz-adv-x="720" d="M25 299v532q0 182 56.5 246t221.5 64h117q164 0 220 -64t56 -246v-372h-358v-131q0 -27 6 -38t23 -11h6q17 0 22.5 11t5.5 38v69h295v-98q0 -181 -56.5 -245t-219.5 -64h-117q-165 0 -221.5 64t-56.5 245zM72 1184v250h262v-250h-262zM338 713h63v90q0 27 -5.5 38 t-22.5 11h-6q-17 0 -23 -11t-6 -38v-90zM393 1184v250h262v-250h-262z" />
<glyph unicode="&#xec;" horiz-adv-x="374" d="M-51 1434h260l106 -250h-190zM31 0v1130h313v-1130h-313z" />
<glyph unicode="&#xed;" horiz-adv-x="374" d="M31 0v1130h313v-1130h-313zM59 1184l107 250h260l-176 -250h-191z" />
<glyph unicode="&#xee;" horiz-adv-x="374" d="M-66 1184l146 250h217l145 -250h-190l-64 92l-63 -92h-191zM31 0v1130h313v-1130h-313z" />
<glyph unicode="&#xef;" horiz-adv-x="374" d="M-106 1184v250h262v-250h-262zM31 0v1130h313v-1130h-313zM215 1184v250h262v-250h-262z" />
<glyph unicode="&#xf0;" horiz-adv-x="741" d="M25 299v623q0 120 34.5 169.5t126.5 49.5h50q75 0 115.5 -34t56.5 -101v120q0 19 -2 25l-23 -21l-29 29l31 29q-8 4 -18 4h-58v242h127q125 0 185 -35l38 35h56l-64 -60q64 -64 64 -250v-825q0 -181 -57.5 -245t-221.5 -64h-133q-165 0 -221.5 64t-56.5 245zM338 328 q0 -27 6 -38t23 -11h6q17 0 22.5 11t5.5 38v475q0 27 -5.5 38t-22.5 11h-6q-17 0 -23 -11t-6 -38v-475z" />
<glyph unicode="&#xf1;" horiz-adv-x="749" d="M31 0v1130h299v-169q9 91 50 135.5t130 44.5h49q92 0 127 -49.5t35 -169.5v-922h-313v803q0 27 -6 38t-23 11h-6q-17 0 -23 -11t-6 -38v-803h-313zM119 1194q0 128 39 178.5t129 50.5q50 0 99.5 -25.5t70.5 -25.5q39 0 39 51h133q0 -127 -38 -178t-126 -51 q-50 0 -99.5 24.5t-70.5 24.5q-39 0 -39 -49h-137z" />
<glyph unicode="&#xf2;" horiz-adv-x="739" d="M25 299v532q0 182 56.5 246t221.5 64h133q164 0 221.5 -64t57.5 -246v-532q0 -181 -57.5 -245t-221.5 -64h-133q-165 0 -221.5 64t-56.5 245zM131 1434h260l107 -250h-191zM338 328q0 -27 6 -38t23 -11h6q17 0 22.5 11t5.5 38v475q0 27 -5.5 38t-22.5 11h-6 q-17 0 -23 -11t-6 -38v-475z" />
<glyph unicode="&#xf3;" horiz-adv-x="739" d="M25 299v532q0 182 56.5 246t221.5 64h133q164 0 221.5 -64t57.5 -246v-532q0 -181 -57.5 -245t-221.5 -64h-133q-165 0 -221.5 64t-56.5 245zM242 1184l106 250h260l-176 -250h-190zM338 328q0 -27 6 -38t23 -11h6q17 0 22.5 11t5.5 38v475q0 27 -5.5 38t-22.5 11h-6 q-17 0 -23 -11t-6 -38v-475z" />
<glyph unicode="&#xf4;" horiz-adv-x="739" d="M25 299v532q0 182 56.5 246t221.5 64h133q164 0 221.5 -64t57.5 -246v-532q0 -181 -57.5 -245t-221.5 -64h-133q-165 0 -221.5 64t-56.5 245zM115 1184l145 250h217l146 -250h-191l-63 92l-64 -92h-190zM338 328q0 -27 6 -38t23 -11h6q17 0 22.5 11t5.5 38v475 q0 27 -5.5 38t-22.5 11h-6q-17 0 -23 -11t-6 -38v-475z" />
<glyph unicode="&#xf5;" horiz-adv-x="739" d="M25 299v532q0 182 56.5 246t221.5 64h133q164 0 221.5 -64t57.5 -246v-532q0 -181 -57.5 -245t-221.5 -64h-133q-165 0 -221.5 64t-56.5 245zM113 1194q0 128 39 178.5t129 50.5q50 0 99.5 -25.5t70.5 -25.5q38 0 38 51h134q0 -127 -38 -178t-126 -51q-50 0 -99.5 24.5 t-70.5 24.5q-39 0 -39 -49h-137zM338 328q0 -27 6 -38t23 -11h6q17 0 22.5 11t5.5 38v475q0 27 -5.5 38t-22.5 11h-6q-17 0 -23 -11t-6 -38v-475z" />
<glyph unicode="&#xf6;" horiz-adv-x="739" d="M25 299v532q0 182 56.5 246t221.5 64h133q164 0 221.5 -64t57.5 -246v-532q0 -181 -57.5 -245t-221.5 -64h-133q-165 0 -221.5 64t-56.5 245zM74 1184v250h262v-250h-262zM338 328q0 -27 6 -38t23 -11h6q17 0 22.5 11t5.5 38v475q0 27 -5.5 38t-22.5 11h-6q-17 0 -23 -11 t-6 -38v-475zM395 1184v250h262v-250h-262z" />
<glyph unicode="&#xf7;" d="M27 580v276h714v-276h-714zM240 246v272h290v-272h-290zM240 918v272h290v-272h-290z" />
<glyph unicode="&#xf8;" horiz-adv-x="739" d="M25 -61l45 127q-45 63 -45 233v532q0 182 56.5 246t221.5 64h139l23 61h250l-49 -137q49 -62 49 -234v-532q0 -181 -57.5 -245t-221.5 -64h-143l-19 -51h-249zM338 328q0 -27 6 -38t23 -11h6q17 0 22.5 11t5.5 38v475q0 27 -5.5 38t-22.5 11h-6q-17 0 -23 -11t-6 -38 v-475z" />
<glyph unicode="&#xf9;" horiz-adv-x="749" d="M29 209v921h313v-802q0 -27 6 -38t23 -11h6q17 0 23 11t6 38v802h313v-940q0 -114 20 -190h-299q-20 28 -26 137q-13 -74 -53.5 -110.5t-120.5 -36.5h-50q-92 0 -126.5 49.5t-34.5 169.5zM135 1434h260l107 -250h-191z" />
<glyph unicode="&#xfa;" horiz-adv-x="749" d="M29 209v921h313v-802q0 -27 6 -38t23 -11h6q17 0 23 11t6 38v802h313v-940q0 -114 20 -190h-299q-20 28 -26 137q-13 -74 -53.5 -110.5t-120.5 -36.5h-50q-92 0 -126.5 49.5t-34.5 169.5zM246 1184l106 250h260l-176 -250h-190z" />
<glyph unicode="&#xfb;" horiz-adv-x="749" d="M29 209v921h313v-802q0 -27 6 -38t23 -11h6q17 0 23 11t6 38v802h313v-940q0 -114 20 -190h-299q-20 28 -26 137q-13 -74 -53.5 -110.5t-120.5 -36.5h-50q-92 0 -126.5 49.5t-34.5 169.5zM121 1184l145 250h217l146 -250h-191l-63 92l-64 -92h-190z" />
<glyph unicode="&#xfc;" horiz-adv-x="749" d="M29 209v921h313v-802q0 -27 6 -38t23 -11h6q17 0 23 11t6 38v802h313v-940q0 -114 20 -190h-299q-20 28 -26 137q-13 -74 -53.5 -110.5t-120.5 -36.5h-50q-92 0 -126.5 49.5t-34.5 169.5zM80 1184v250h262v-250h-262zM401 1184v250h263v-250h-263z" />
<glyph unicode="&#xfd;" horiz-adv-x="716" d="M0 1130h319l21 -198q21 -224 35 -570q21 399 37 570l20 198h285l-164 -1167q-14 -106 -79.5 -164.5t-186.5 -58.5h-264v231h108q30 0 27 29zM240 1184l106 250h260l-176 -250h-190z" />
<glyph unicode="&#xfe;" horiz-adv-x="747" d="M31 -260v1694h313v-402q36 109 166 109h49q92 0 127 -49.5t35 -169.5v-713q0 -120 -35 -169.5t-127 -49.5h-49q-131 0 -166 108v-358h-313zM344 328q0 -27 6 -38t23 -11h6q17 0 23 11t6 38v475q0 27 -6 38t-23 11h-6q-17 0 -23 -11t-6 -38v-475z" />
<glyph unicode="&#xff;" horiz-adv-x="716" d="M0 1130h319l21 -198q21 -224 35 -570q21 399 37 570l20 198h285l-164 -1167q-14 -106 -79.5 -164.5t-186.5 -58.5h-264v231h108q30 0 27 29zM74 1184v250h262v-250h-262zM395 1184v250h262v-250h-262z" />
<glyph unicode="&#x152;" horiz-adv-x="1058" d="M29 348v737q0 105 13.5 169t49.5 106t94.5 58t153.5 16h698v-330h-239v-197h182v-329h-182v-248h239v-330h-698q-185 0 -248 72t-63 276zM377 385q0 -31 7.5 -43t27.5 -12h39v774h-39q-20 0 -27.5 -12t-7.5 -43v-664z" />
<glyph unicode="&#x153;" horiz-adv-x="1097" d="M25 299v532q0 182 56.5 246t221.5 64h31q100 0 151 -22t72 -77q23 55 74.5 77t152.5 22h11q164 0 221 -64t57 -246v-372h-358v-131q0 -27 5.5 -38t22.5 -11h7q17 0 22.5 11t5.5 38v69h295v-98q0 -181 -56.5 -245t-219.5 -64h-13q-101 0 -152.5 21.5t-74.5 76.5 q-21 -55 -72 -76.5t-151 -21.5h-31q-165 0 -221.5 64t-56.5 245zM338 328q0 -27 6 -38t23 -11h6q17 0 22.5 11t5.5 38v475q0 27 -5.5 38t-22.5 11h-6q-17 0 -23 -11t-6 -38v-475zM715 713h63v90q0 26 -6 37.5t-22 11.5h-7q-17 0 -22.5 -11t-5.5 -38v-90z" />
<glyph unicode="&#x178;" horiz-adv-x="800" d="M0 1434h350l23 -160q30 -207 47 -447q17 240 47 447l22 160h314l-230 -1043v-391h-348v391zM113 1475v249h262v-249h-262zM434 1475v249h262v-249h-262z" />
<glyph unicode="&#x2c6;" horiz-adv-x="382" d="M-61 1184l145 250h217l145 -250h-190l-63 92l-64 -92h-190z" />
<glyph unicode="&#x2dc;" horiz-adv-x="382" d="M-63 1194q0 128 38.5 178.5t128.5 50.5q50 0 99.5 -25.5t70.5 -25.5q39 0 39 51h133q0 -127 -37.5 -178t-125.5 -51q-50 0 -99.5 24.5t-70.5 24.5q-39 0 -39 -49h-137z" />
<glyph unicode="&#x2000;" horiz-adv-x="894" />
<glyph unicode="&#x2001;" horiz-adv-x="1788" />
<glyph unicode="&#x2002;" horiz-adv-x="894" />
<glyph unicode="&#x2003;" horiz-adv-x="1788" />
<glyph unicode="&#x2004;" horiz-adv-x="596" />
<glyph unicode="&#x2005;" horiz-adv-x="447" />
<glyph unicode="&#x2006;" horiz-adv-x="298" />
<glyph unicode="&#x2007;" horiz-adv-x="298" />
<glyph unicode="&#x2008;" horiz-adv-x="223" />
<glyph unicode="&#x2009;" horiz-adv-x="357" />
<glyph unicode="&#x200a;" horiz-adv-x="99" />
<glyph unicode="&#x2010;" horiz-adv-x="520" d="M27 432v236h467v-236h-467z" />
<glyph unicode="&#x2011;" horiz-adv-x="520" d="M27 432v236h467v-236h-467z" />
<glyph unicode="&#x2012;" horiz-adv-x="520" d="M27 432v236h467v-236h-467z" />
<glyph unicode="&#x2013;" horiz-adv-x="1024" d="M0 432v236h1024v-236h-1024z" />
<glyph unicode="&#x2014;" horiz-adv-x="2048" d="M0 432v236h2048v-236h-2048z" />
<glyph unicode="&#x2018;" horiz-adv-x="382" d="M16 793v411l308 230l14 -19l-195 -211h222v-411h-349z" />
<glyph unicode="&#x2019;" horiz-adv-x="382" d="M16 1022v412h349v-412l-308 -229l-14 18l195 211h-222z" />
<glyph unicode="&#x201a;" horiz-adv-x="382" d="M16 0v412h349v-412l-308 -229l-14 18l195 211h-222z" />
<glyph unicode="&#x201c;" horiz-adv-x="757" d="M12 793v411l307 230l15 -19l-195 -211h221v-411h-348zM395 793v411l307 230l15 -19l-195 -211h221v-411h-348z" />
<glyph unicode="&#x201d;" horiz-adv-x="757" d="M12 1022v412h348v-412l-307 -229l-14 18l194 211h-221zM395 1022v412h348v-412l-307 -229l-14 18l194 211h-221z" />
<glyph unicode="&#x201e;" horiz-adv-x="757" d="M12 0v412h348v-412l-307 -229l-14 18l194 211h-221zM395 0v412h348v-412l-307 -229l-14 18l194 211h-221z" />
<glyph unicode="&#x2022;" horiz-adv-x="647" d="M37 717q0 138 76 222.5t209 84.5t210.5 -85t77.5 -222q0 -135 -78 -221t-210 -86t-208.5 86t-76.5 221z" />
<glyph unicode="&#x2026;" horiz-adv-x="1140" d="M12 0v412h348v-412h-348zM395 0v412h348v-412h-348zM778 0v412h348v-412h-348z" />
<glyph unicode="&#x202f;" horiz-adv-x="357" />
<glyph unicode="&#x2039;" horiz-adv-x="485" d="M0 565l203 410h282l-172 -410l172 -409h-282z" />
<glyph unicode="&#x203a;" horiz-adv-x="485" d="M0 156l172 409l-172 410h283l202 -410l-202 -409h-283z" />
<glyph unicode="&#x205f;" horiz-adv-x="447" />
<glyph unicode="&#x20ac;" d="M0 621v81h41v105h-41v80h41v235q0 188 59.5 255t227.5 67h123q169 0 227.5 -66.5t58.5 -255.5v-133h-305v96q0 30 -6 41t-25 11h-6q-19 0 -24.5 -11t-5.5 -41v-198h372v-80h-372v-105h372v-81h-372v-273q0 -30 5.5 -40.5t24.5 -10.5h6q19 0 25 11t6 40v170h305v-207 q0 -97 -12.5 -156t-46 -97.5t-87 -53t-140.5 -14.5h-123q-168 0 -227.5 66.5t-59.5 254.5v310h-41z" />
<glyph unicode="&#x2122;" horiz-adv-x="1228" d="M0 1255v179h432v-179h-108v-669h-215v669h-109zM467 586v848h299l39 -308q3 -23 14 -198q3 96 17 198l43 308h315v-848h-215v291q0 120 10 260q-27 -144 -43 -260l-45 -291h-178l-43 291q-7 52 -23 147t-20 121q10 -150 10 -268v-291h-180z" />
<glyph unicode="&#x25fc;" horiz-adv-x="1126" d="M0 0v1126h1126v-1126h-1126z" />
</font>
</defs>
</svg>
